<?xml version="1.0" standalone="no"?><svg xmlns="http://www.w3.org/2000/svg" viewBox="0 0 1440 320"><path fill="#23272A" fill-opacity="1" d="M0,96L30,122.7C60,149,120,203,180,192C240,181,300,107,360,96C420,85,480,139,540,154.7C600,171,660,149,720,160C780,171,840,213,900,218.7C960,224,1020,192,1080,165.3C1140,139,1200,117,1260,144C1320,171,1380,245,1410,282.7L1440,320L1440,0L1410,0C1380,0,1320,0,1260,0C1200,0,1140,0,1080,0C1020,0,960,0,900,0C840,0,780,0,720,0C660,0,600,0,540,0C480,0,420,0,360,0C300,0,240,0,180,0C120,0,60,0,30,0L0,0Z"></path></svg>