<svg xmlns="http://www.w3.org/2000/svg" width="1438.5555553436284" height="516.3333339691162"><rect id="backgroundrect" width="100%" height="100%" x="0" y="0" fill="none" stroke="none" style="" class=""/><g class="currentLayer" style=""><title>Layer 1</title><path fill="#23272A" fill-opacity="1" d="M0,96L30,122.7C60,149,120,203,180,192C240,181,300,107,360,96C420,85,480,139,540,154.7C600,171,660,149,720,160C780,171,840,213,900,218.7C960,224,1020,192,1080,165.3C1140,139,1200,117,1260,144C1320,171,1380,245,1410,282.7L1440,320L1440,0L1410,0C1380,0,1320,0,1260,0C1200,0,1140,0,1080,0C1020,0,960,0,900,0C840,0,780,0,720,0C660,0,600,0,540,0C480,0,420,0,360,0C300,0,240,0,180,0C120,0,60,0,30,0L0,0Z" id="svg_1" class=""/><path fill="#23272A" fill-opacity="1" d="M3.333330512046814,149.3330078125 L33.3333295583725,176.03298950195312 C63.33333337306976,202.3330078125 123.3333181142807,256.3330078125 183.33334863185883,245.3330078125 C243.33334863185883,234.3330078125 303.33330285549164,160.3330078125 363.33330285549164,149.3330078125 C423.33330285549164,138.3330078125 483.33330285549164,192.3330078125 543.333394408226,208.03298950195312 C603.333394408226,224.3330078125 663.333394408226,202.3330078125 723.333394408226,213.3330078125 C783.333394408226,224.3330078125 843.333394408226,266.3329772949219 903.333394408226,272.0329895019531 C963.333394408226,277.3329772949219 1023.3333333730698,245.3330078125 1083.3332113027573,218.63302612304688 C1143.3332113027573,192.3330078125 1203.3332113027573,170.3330078125 1263.3332113027573,197.3330078125 C1323.3332113027573,224.3330078125 1383.3332113027573,298.3329772949219 1413.3332113027573,336.0329895019531 L1443.3332113027573,373.3329772949219 L1443.3332113027573,53.333003997802734 L1413.3332113027573,53.333003997802734 C1383.3332113027573,53.333003997802734 1323.3332113027573,53.333003997802734 1263.3332113027573,53.333003997802734 C1203.3332113027573,53.333003997802734 1143.3332113027573,53.333003997802734 1083.3332113027573,53.333003997802734 C1023.3333333730698,53.333003997802734 963.333394408226,53.333003997802734 903.333394408226,53.333003997802734 C843.333394408226,53.333003997802734 783.333394408226,53.333003997802734 723.333394408226,53.333003997802734 C663.333394408226,53.333003997802734 603.333394408226,53.333003997802734 543.333394408226,53.333003997802734 C483.33330285549164,53.333003997802734 423.33330285549164,53.333003997802734 363.33330285549164,53.333003997802734 C303.33330285549164,53.333003997802734 243.33334863185883,53.333003997802734 183.33334863185883,53.333003997802734 C123.3333181142807,53.333003997802734 63.33333337306976,53.333003997802734 33.3333295583725,53.333003997802734 L3.333330512046814,53.333003997802734 z" class="" id="svg_3" transform="translate(-3.33333, 40)"/><path fill="#23272A" fill-opacity="1" d="M-31.66665518283844,259.3329772949219 L-1.6666568517684937,286.032958984375 C28.333341002464294,312.3329772949219 88.33333337306976,366.3329772949219 148.33334863185883,355.3329772949219 C208.33334863185883,344.3329772949219 268.33330285549164,270.3329772949219 328.33330285549164,259.3329772949219 C388.33330285549164,248.33299255371094 448.33330285549164,302.3329772949219 508.3332723379135,318.032958984375 C568.333394408226,334.3329772949219 628.333394408226,312.3329772949219 688.3333333730698,323.3329772949219 C748.3333333730698,334.3329772949219 808.3333333730698,376.3329772949219 868.3333333730698,382.0329895019531 C928.3333333730698,387.3329772949219 988.3333333730698,355.3329772949219 1048.3332113027573,328.63299560546875 C1108.3332113027573,302.3329772949219 1168.3332113027573,280.3329772949219 1228.3332113027573,307.3329772949219 C1288.3332113027573,334.3329772949219 1348.3332113027573,408.3329772949219 1378.3332113027573,446.0329895019531 L1408.3332113027573,483.3329772949219 L1408.3332113027573,163.33299255371094 L1378.3332113027573,163.33299255371094 C1348.3332113027573,163.33299255371094 1288.3332113027573,163.33299255371094 1228.3332113027573,163.33299255371094 C1168.3332113027573,163.33299255371094 1108.3332113027573,163.33299255371094 1048.3332113027573,163.33299255371094 C988.3333333730698,163.33299255371094 928.3333333730698,163.33299255371094 868.3333333730698,163.33299255371094 C808.3333333730698,163.33299255371094 748.3333333730698,163.33299255371094 688.3333333730698,163.33299255371094 C628.333394408226,163.33299255371094 568.333394408226,163.33299255371094 508.3332723379135,163.33299255371094 C448.33330285549164,163.33299255371094 388.33330285549164,163.33299255371094 328.33330285549164,163.33299255371094 C268.33330285549164,163.33299255371094 208.33334863185883,163.33299255371094 148.33334863185883,163.33299255371094 C88.33333337306976,163.33299255371094 28.333341002464294,163.33299255371094 -1.6666568517684937,163.33299255371094 L-31.66665518283844,163.33299255371094 z" class="" id="svg_2" transform="translate(31.6667, 25)"/><rect fill="#23272A" style="color: rgb(0, 0, 0);" stroke-dashoffset="" fill-rule="nonzero" id="svg_4" x="324" y="123" width="31" height="67"/><rect fill="#23272A" style="color: rgb(0, 0, 0);" stroke-dashoffset="" fill-rule="nonzero" id="svg_6" x="284" y="148" width="158" height="84"/></g></svg>